<?xml version="1.0" encoding="utf-8"?>
<!-- Generator: Adobe Illustrator 19.1.0, SVG Export Plug-In . SVG Version: 6.00 Build 0)  -->
<svg version="1.1" id="Layer_1" xmlns="http://www.w3.org/2000/svg" xmlns:xlink="http://www.w3.org/1999/xlink" x="0px" y="0px"
	 viewBox="0 0 105 120" style="enable-background:new 0 0 105 120;" xml:space="preserve">
<style type="text/css">
	.st0{clip-path:url(#SVGID_2_);fill:#F7E78A;}
	.st1{opacity:0.5;clip-path:url(#SVGID_2_);fill:#DCC96E;}
	.st2{clip-path:url(#SVGID_2_);fill:#F2D559;}
	.st3{fill:#F7E78A;}
	.st4{fill:#E1833B;}
	.st5{fill:#F09246;}
	.st6{fill:#9A792C;}
</style>
<g>
	<g>
		<g>
			<defs>
				<path id="SVGID_1_" d="M72.3,103.5c-0.5,0.5-1.4,1.5-2.1,2.3c-1.2-6-8.4-10.7-17.2-10.7c-9.6,0-17.4,5.8-17.4,12.4
					c0,6.6,7.8,12.4,17.4,12.4C79.7,120,73.2,102.7,72.3,103.5z"/>
			</defs>
			<clipPath id="SVGID_2_">
				<use xlink:href="#SVGID_1_"  style="overflow:visible;"/>
			</clipPath>
			<path class="st0" d="M72.3,103.5c-0.5,0.5-1.4,1.5-2.1,2.3c-1.2-6-8.4-10.7-17.2-10.7c-9.6,0-17.4,5.8-17.4,12.4
				c0,6.6,7.8,12.4,17.4,12.4C79.7,120,73.2,102.7,72.3,103.5z"/>
			<path class="st1" d="M61.4,111.6c-0.2,0-0.4-0.2-0.4-0.4c0-0.2,0.1-0.5,0.4-0.5c0.1,0,6.6-0.9,9-3.1c-1.6-1.2-4-2.8-4.7-2.9
				c-0.2,0-0.4-0.2-0.4-0.5c0-0.2,0.2-0.4,0.5-0.4c1.3,0.1,4.9,2.8,5.6,3.4c0.1,0.1,0.2,0.2,0.2,0.3c0,0.1,0,0.2-0.1,0.3
				C69,110.5,61.8,111.5,61.4,111.6C61.4,111.6,61.4,111.6,61.4,111.6z"/>
			<ellipse class="st2" cx="53.2" cy="97.9" rx="20.1" ry="5.9"/>
		</g>
		<g>
			<path class="st3" d="M98.3,84.5c4.2-15.1,6.6-28.9,6.6-37.3C105,21.1,81.5,0,52.5,0C23.5,0,0,21.1,0,47.2
				c0,8.3,2.4,22.2,6.6,37.3c-1.8,1.3-2.7,2.6-2.7,4.1c0,2.1,2.1,4,5.7,5.8c8.2,3.9,24.3,6.5,42.9,6.5s34.7-2.6,42.9-6.5
				c3.6-1.7,5.7-3.7,5.7-5.8C101.1,87.1,100.1,85.7,98.3,84.5z"/>
			<g>
				<path class="st4" d="M30.7,88c0,0,3.8,6,7,6c3.3,0,3.8-4,3.8-4S32.7,87.3,30.7,88z"/>
				<path class="st5" d="M36.6,82.7c0,0-5-0.7-7.7,2.5c-2.7,3.2-3.3,3.2-3.3,3.2s0.3,2.3,2.1,1.6c1.7-0.7,3-1.4,5.2-1.4
					c2.1,0,5.4,3.1,8.7,2.9c3.3-0.2,7.3-1.2,7.1-2.1c-0.2-0.9-0.8-1.6-2.7-1.1C45.9,88.2,42.7,82.7,36.6,82.7z"/>
			</g>
			<g>
				<path class="st6" d="M26.2,80.3c-0.5,0-0.9-0.4-0.9-0.9c0-1-0.8-1.8-1.8-1.8s-1.8,0.8-1.8,1.8c0,0.5-0.4,0.9-0.9,0.9
					s-0.9-0.4-0.9-0.9c0-2,1.6-3.6,3.6-3.6s3.6,1.6,3.6,3.6C27.1,79.9,26.7,80.3,26.2,80.3z"/>
				<path class="st6" d="M54.7,80.3c-0.5,0-0.9-0.4-0.9-0.9c0-1-0.8-1.8-1.8-1.8c-1,0-1.8,0.8-1.8,1.8c0,0.5-0.4,0.9-0.9,0.9
					s-0.9-0.4-0.9-0.9c0-2,1.6-3.6,3.6-3.6c2,0,3.6,1.6,3.6,3.6C55.6,79.9,55.2,80.3,54.7,80.3z"/>
			</g>
		</g>
	</g>
</g>
</svg>
