<?xml version="1.0" encoding="utf-8"?>
<!-- Generator: Adobe Illustrator 19.1.0, SVG Export Plug-In . SVG Version: 6.00 Build 0)  -->
<svg version="1.1" id="Layer_1" xmlns="http://www.w3.org/2000/svg" xmlns:xlink="http://www.w3.org/1999/xlink" x="0px" y="0px"
	 viewBox="0 0 190 180" style="enable-background:new 0 0 190 180;" xml:space="preserve">
<style type="text/css">
	.st0{fill:#2A78C6;}
	.st1{fill:none;stroke:#2A78C6;stroke-width:3;stroke-linecap:round;stroke-miterlimit:10;}
</style>
<g>
	<path class="st0" d="M184.4,102.3c-1.9-0.6-3.8-1-5.8-1.5c1.9-11.1,2.6-26.3-3.1-41.2c0,0,0.7-4.3,8.7-2.8c0,0-4.8-7.5-13-5.2
		c0,0,3.9-7.9-0.9-20c0,0-2.6,11.6-6.5,13.6c0,0-3-26.7-44.5-43c0,0,5.5,8.7,6,15.3c0,0.6-52.7-36.2-119,33.7c0,0,19-7,24-7
		c0,0-20,18.2-28,53c0,0,7.8-7.8,19.8-15.9c-1.5,4.6-2.6,9.4-3.2,14.3c-2.4,0.5-4.9,1.1-7.3,1.8L9.3,98v2.6
		c0,6.6,3.8,34.9,15.7,50.3l0.9,1.2l1.5,0.1c0.5,0,4.9,0.4,11.2,0.8c14.4,15.2,35.4,24.7,58.7,24.7c23.8,0,45.2-10,59.6-25.7
		c6.6-0.4,11.2-0.8,11.7-0.8l1.5-0.1l0.9-1.2c8.6-11,15.4-42.3,15.7-43.6l0.7-3.2L184.4,102.3z M115.1,144.7
		c-1.5-5.6-5.6-21.5-7-34.9c8.6-2.1,36-7.9,63.3-3.3c-0.6,14.4-6,27.8-14.7,38.6C144.8,145.8,126.6,146.4,115.1,144.7z M29.2,76.9
		C40.8,70,55.1,63.9,69.9,63.5c0,0-15.3,11.5-22.3,28.7c0,0,61.7-32.2,95.5-32.2c7,0,12.4,2.4,16.6,6.3c6.6,9.7,10.8,21,11.6,33.1
		c-10.3-1.7-20.5-1.9-29.8-1.5c0,0,0.1-0.1,0.1-0.1c0.7-0.9,0.5-2.1-0.4-2.8c-5.9-4.3-20.7-5.5-21.4-5.5c-1.1-0.1-2.1,0.7-2.2,1.8
		c-0.1,1.1,0.7,2.1,1.8,2.2c3.9,0.3,14.7,1.7,19,4.6c-19.6,1.3-34.2,5.5-35.2,5.8l-2.7,0.8l0.2,2.8c0.2,3,0.6,6.2,1.1,9.4
		c-1.8-0.4-3.5-0.5-4.9-0.5c0.6-3.4,1.1-6.8,1.4-9.9l0.2-2.6l-2.5-0.9c-1.7-0.6-37.3-13.4-72-8.2C24.9,88.4,26.7,82.5,29.2,76.9z
		 M39,146.1c-9.7-11.7-15.5-26.5-15.5-42.4c0-0.6,0-1.2,0-1.8c28.5-4.7,58.8,3.9,67.7,6.7c-1.6,13.9-7.7,31.4-9.8,37.1
		C69.6,147.4,50.8,146.8,39,146.1z M29.6,145.5c-8.9-12.4-12.5-33.6-13.2-42.2c0.7-0.2,1.5-0.4,2.2-0.5c0,0.3,0,0.6,0,0.9
		c0,15.6,5.1,30.1,13.9,42C31.3,145.6,30.3,145.5,29.6,145.5z M97.4,173c-19.9,0-38.1-7.4-51.4-19.5c4.7,0.2,10,0.3,15.2,0.3
		c8.5,0,17-0.4,23.3-1.5l1.9-0.4l0.7-1.8c0.3-0.7,5.1-13.2,8.4-26.8c2.3,0,5.7,0.2,7.6,0.7c2.4,12.8,5.6,24.2,5.8,24.8l0.6,2.1
		l2.1,0.4c6.3,1.2,14.8,1.5,23.3,1.5c5.1,0,10.2-0.1,14.9-0.3C136.5,165.1,117.9,173,97.4,173z M166.6,144.5
		c-0.9,0.1-2.1,0.2-3.5,0.3c6.4-9.1,10.8-19.6,12.4-30.9c0.5-1.6,1.1-3.7,1.8-6.2c0.7,0.2,1.4,0.3,2.1,0.5
		C177,117.9,171.9,136.4,166.6,144.5z"/>
	<path class="st0" d="M59.4,94c0.4,0,0.8-0.1,1.2-0.4c4.1-3,15.3-4.5,19.3-4.8c1.1-0.1,1.9-1,1.8-2.2c-0.1-1.1-1-1.9-2.2-1.8
		c-0.6,0-15.5,1.3-21.4,5.5c-0.9,0.6-1.1,1.9-0.4,2.8C58.2,93.7,58.8,94,59.4,94z"/>
	<path class="st0" d="M103.4,151.5c-1.1,0-2,0.9-2,2c0,2.2-1.8,4-4,4s-4-1.8-4-4c0-1.1-0.9-2-2-2s-2,0.9-2,2c0,4.4,3.6,8,8,8
		s8-3.6,8-8C105.4,152.4,104.5,151.5,103.4,151.5z"/>
</g>
<path class="st1" d="M67.8,125.6c0-3.5,2.8-6.2,6.2-6.2c3.5,0,6.2,2.8,6.2,6.2"/>
<path class="st1" d="M112.8,125.6c0-3.5,2.8-6.2,6.2-6.2c3.5,0,6.2,2.8,6.2,6.2"/>
</svg>
